<svg width="136" height="25" viewBox="0 0 136 25" fill="none" xmlns="http://www.w3.org/2000/svg">
<path d="M0.818182 24V0.727272H8.95455C10.5758 0.727272 11.9129 1.00758 12.9659 1.56818C14.0189 2.12121 14.803 2.86742 15.3182 3.80682C15.8333 4.73864 16.0909 5.77273 16.0909 6.90909C16.0909 7.90909 15.9129 8.73485 15.5568 9.38636C15.2083 10.0379 14.7462 10.553 14.1705 10.9318C13.6023 11.3106 12.9848 11.5909 12.3182 11.7727V12C13.0303 12.0455 13.7462 12.2955 14.4659 12.75C15.1856 13.2045 15.7879 13.8561 16.2727 14.7045C16.7576 15.553 17 16.5909 17 17.8182C17 18.9848 16.7348 20.0341 16.2045 20.9659C15.6742 21.8977 14.8371 22.6364 13.6932 23.1818C12.5492 23.7273 11.0606 24 9.22727 24H0.818182ZM3.63636 21.5H9.22727C11.0682 21.5 12.375 21.1439 13.1477 20.4318C13.928 19.7121 14.3182 18.8409 14.3182 17.8182C14.3182 17.0303 14.1174 16.303 13.7159 15.6364C13.3144 14.9621 12.7424 14.4242 12 14.0227C11.2576 13.6136 10.3788 13.4091 9.36364 13.4091H3.63636V21.5ZM3.63636 10.9545H8.86364C9.71212 10.9545 10.4773 10.7879 11.1591 10.4545C11.8485 10.1212 12.3939 9.65151 12.7955 9.04545C13.2045 8.43939 13.4091 7.72727 13.4091 6.90909C13.4091 5.88636 13.053 5.01894 12.3409 4.30682C11.6288 3.58712 10.5 3.22727 8.95455 3.22727H3.63636V10.9545ZM32.267 16.8636V6.54545H34.9489V24H32.267V21.0455H32.0852C31.6761 21.9318 31.0398 22.6856 30.1761 23.3068C29.3125 23.9205 28.2216 24.2273 26.9034 24.2273C25.8125 24.2273 24.8428 23.9886 23.9943 23.5114C23.1458 23.0265 22.4792 22.2992 21.9943 21.3295C21.5095 20.3523 21.267 19.1212 21.267 17.6364V6.54545H23.9489V17.4545C23.9489 18.7273 24.3049 19.7424 25.017 20.5C25.7367 21.2576 26.6534 21.6364 27.767 21.6364C28.4337 21.6364 29.1117 21.4659 29.8011 21.125C30.4981 20.7841 31.0814 20.2614 31.5511 19.5568C32.0284 18.8523 32.267 17.9545 32.267 16.8636ZM52.2244 10.4545L49.8153 11.1364C49.6638 10.7348 49.4403 10.3447 49.1449 9.96591C48.857 9.57955 48.4631 9.26136 47.9631 9.01136C47.4631 8.76136 46.8229 8.63636 46.0426 8.63636C44.9744 8.63636 44.0843 8.88258 43.3722 9.375C42.6676 9.85985 42.3153 10.4773 42.3153 11.2273C42.3153 11.8939 42.5578 12.4205 43.0426 12.8068C43.5275 13.1932 44.285 13.5152 45.3153 13.7727L47.9062 14.4091C49.4669 14.7879 50.6297 15.3674 51.3949 16.1477C52.16 16.9205 52.5426 17.9167 52.5426 19.1364C52.5426 20.1364 52.2547 21.0303 51.679 21.8182C51.1108 22.6061 50.3153 23.2273 49.2926 23.6818C48.2699 24.1364 47.0805 24.3636 45.7244 24.3636C43.9441 24.3636 42.4706 23.9773 41.304 23.2045C40.1373 22.4318 39.3987 21.303 39.0881 19.8182L41.6335 19.1818C41.8759 20.1212 42.3343 20.8258 43.0085 21.2955C43.6903 21.7652 44.5805 22 45.679 22C46.929 22 47.9214 21.7348 48.6562 21.2045C49.3987 20.6667 49.7699 20.0227 49.7699 19.2727C49.7699 18.6667 49.5578 18.1591 49.1335 17.75C48.7093 17.3333 48.0578 17.0227 47.179 16.8182L44.2699 16.1364C42.6714 15.7576 41.4972 15.1705 40.7472 14.375C40.0047 13.572 39.6335 12.5682 39.6335 11.3636C39.6335 10.3788 39.91 9.50758 40.4631 8.75C41.0237 7.99242 41.785 7.39773 42.7472 6.96591C43.7169 6.53409 44.8153 6.31818 46.0426 6.31818C47.7699 6.31818 49.1259 6.69697 50.1108 7.45454C51.1032 8.21212 51.8078 9.21212 52.2244 10.4545Z" fill="white"/>
<path d="M80.501 8.224C80.501 10.08 79.861 11.6267 78.581 12.864C77.3223 14.08 75.3917 14.688 72.789 14.688H68.501V24H65.589V1.696H72.789C75.3063 1.696 77.2157 2.304 78.517 3.52C79.8397 4.736 80.501 6.304 80.501 8.224ZM72.789 12.288C74.4103 12.288 75.605 11.936 76.373 11.232C77.141 10.528 77.525 9.52533 77.525 8.224C77.525 5.472 75.9463 4.096 72.789 4.096H68.501V12.288H72.789ZM83.0323 15.168C83.0323 13.376 83.3949 11.808 84.1203 10.464C84.8456 9.09867 85.8376 8.04267 87.0963 7.296C88.3763 6.54933 89.7949 6.176 91.3523 6.176C92.8883 6.176 94.2216 6.50667 95.3523 7.168C96.4829 7.82933 97.3256 8.66133 97.8803 9.664V6.464H100.824V24H97.8803V20.736C97.3043 21.76 96.4403 22.6133 95.2883 23.296C94.1576 23.9573 92.8349 24.288 91.3203 24.288C89.7629 24.288 88.3549 23.904 87.0963 23.136C85.8376 22.368 84.8456 21.2907 84.1203 19.904C83.3949 18.5173 83.0323 16.9387 83.0323 15.168ZM97.8803 15.2C97.8803 13.8773 97.6136 12.7253 97.0803 11.744C96.5469 10.7627 95.8216 10.016 94.9043 9.504C94.0083 8.97067 93.0163 8.704 91.9283 8.704C90.8403 8.704 89.8483 8.96 88.9523 9.472C88.0563 9.984 87.3416 10.7307 86.8083 11.712C86.2749 12.6933 86.0083 13.8453 86.0083 15.168C86.0083 16.512 86.2749 17.6853 86.8083 18.688C87.3416 19.6693 88.0563 20.4267 88.9523 20.96C89.8483 21.472 90.8403 21.728 91.9283 21.728C93.0163 21.728 94.0083 21.472 94.9043 20.96C95.8216 20.4267 96.5469 19.6693 97.0803 18.688C97.6136 17.6853 97.8803 16.5227 97.8803 15.2ZM111.953 24.288C110.609 24.288 109.404 24.064 108.337 23.616C107.271 23.1467 106.428 22.5067 105.809 21.696C105.191 20.864 104.849 19.9147 104.785 18.848H107.793C107.879 19.7227 108.284 20.4373 109.009 20.992C109.756 21.5467 110.727 21.824 111.921 21.824C113.031 21.824 113.905 21.5787 114.545 21.088C115.185 20.5973 115.505 19.9787 115.505 19.232C115.505 18.464 115.164 17.8987 114.481 17.536C113.799 17.152 112.743 16.7787 111.313 16.416C110.012 16.0747 108.945 15.7333 108.113 15.392C107.303 15.0293 106.599 14.5067 106.001 13.824C105.425 13.12 105.137 12.2027 105.137 11.072C105.137 10.176 105.404 9.35467 105.937 8.608C106.471 7.86133 107.228 7.27467 108.209 6.848C109.191 6.4 110.311 6.176 111.569 6.176C113.511 6.176 115.079 6.66667 116.273 7.648C117.468 8.62933 118.108 9.97333 118.193 11.68H115.281C115.217 10.7627 114.844 10.0267 114.161 9.472C113.5 8.91733 112.604 8.64 111.473 8.64C110.428 8.64 109.596 8.864 108.977 9.312C108.359 9.76 108.049 10.3467 108.049 11.072C108.049 11.648 108.231 12.128 108.593 12.512C108.977 12.8747 109.447 13.1733 110.001 13.408C110.577 13.6213 111.367 13.8667 112.369 14.144C113.628 14.4853 114.652 14.8267 115.441 15.168C116.231 15.488 116.903 15.9787 117.457 16.64C118.033 17.3013 118.332 18.1653 118.353 19.232C118.353 20.192 118.087 21.056 117.553 21.824C117.02 22.592 116.263 23.2 115.281 23.648C114.321 24.0747 113.212 24.288 111.953 24.288ZM128.672 24.288C127.328 24.288 126.123 24.064 125.056 23.616C123.989 23.1467 123.147 22.5067 122.528 21.696C121.909 20.864 121.568 19.9147 121.504 18.848H124.512C124.597 19.7227 125.003 20.4373 125.728 20.992C126.475 21.5467 127.445 21.824 128.64 21.824C129.749 21.824 130.624 21.5787 131.264 21.088C131.904 20.5973 132.224 19.9787 132.224 19.232C132.224 18.464 131.883 17.8987 131.2 17.536C130.517 17.152 129.461 16.7787 128.032 16.416C126.731 16.0747 125.664 15.7333 124.832 15.392C124.021 15.0293 123.317 14.5067 122.72 13.824C122.144 13.12 121.856 12.2027 121.856 11.072C121.856 10.176 122.123 9.35467 122.656 8.608C123.189 7.86133 123.947 7.27467 124.928 6.848C125.909 6.4 127.029 6.176 128.288 6.176C130.229 6.176 131.797 6.66667 132.992 7.648C134.187 8.62933 134.827 9.97333 134.912 11.68H132C131.936 10.7627 131.563 10.0267 130.88 9.472C130.219 8.91733 129.323 8.64 128.192 8.64C127.147 8.64 126.315 8.864 125.696 9.312C125.077 9.76 124.768 10.3467 124.768 11.072C124.768 11.648 124.949 12.128 125.312 12.512C125.696 12.8747 126.165 13.1733 126.72 13.408C127.296 13.6213 128.085 13.8667 129.088 14.144C130.347 14.4853 131.371 14.8267 132.16 15.168C132.949 15.488 133.621 15.9787 134.176 16.64C134.752 17.3013 135.051 18.1653 135.072 19.232C135.072 20.192 134.805 21.056 134.272 21.824C133.739 22.592 132.981 23.2 132 23.648C131.04 24.0747 129.931 24.288 128.672 24.288Z" fill="#FF3838"/>
</svg>
